<svg xmlns="http://www.w3.org/2000/svg" enable-background="new 0 0 1920 1080" viewBox="0 0 1920 1080"><path fill="#ffbe55" d="M1184.4 995.8c115.1-65.6 192.6-189.3 192.6-331.2 0-134.2-69.4-252.2-174.3-320.1-78-177.2-255.1-300.8-461.1-300.8C463.5 43.7 238 269.2 238 547.3c0 204.2 121.5 380 296.2 459.1-30.4 7-47.6 15.1-47.6 23.6 0 27.6 180.5 50 403 50s403-22.4 403-50c.2-13.2-41-25.2-108.2-34.2z" opacity=".17"/><path fill="#fcd2b1" d="m554 970.3 42.5-2.5v27.9h-55.2zM1152.8 965.4l1.7 42.1h25.3l4.9-62.5z"/><path fill="#0e538c" d="M931.9 702.2s119.9 26.2 191.3 26.3c0 0-11.1 39.6 26.8 243.6h37.9s9.3-247.9 2-284.7c-7.4-36.9-170.7-94.3-193.7-93.3S791 638.3 791 638.3s-13.4 55.5-3.9 103.9c9.5 48.4 5.5 183.6 14 205.7 0 0-105.3-19.7-218.7 16.8v35.1s204.4 22.9 255.2 7.7c61-18.3 31.1-283.9 94.3-305.3z"/><path fill="#0b4870" d="M1153 1003.4h30.2s-.3 7.2 14.1 6.5c8-.4 40-6.5 41.6 20h-87.5c0 .1-2.8-12.2 1.6-26.5zM554.4 965.7H521V985s11.2-.7 11.9 17.9c.8 20.3 5.4 29.6 50.3 23.3 0 0 3-11.4-5.8-15.2-8.8-3.9-16.2-1.8-20-8.1-1.1-1.8-2.1-14.4-2.1-14.4l-.9-22.8z"/><path fill="#ffbe55" d="M947.1 238.8s42 21.1 74.8 40c34.7 20 45.3 29.5 45.3 29.5l-25.3 79.5s-86.9-38.7-103.7-74.5c-16.8-35.8 8.9-74.5 8.9-74.5z"/><path fill="#ffbe55" d="M936.2 237c31.6-1.2 36.1 44.8 38.4 76.3 3.7 50.7 13.7 97.9 6.8 150.1C972.6 530.5 996 594 996 594s-99.9 94.8-175.7 66.3l-28.4-16.8s-59.4-225.7-52.7-313.8c5.9-75.8 18-85.8 197-92.7z"/><path fill="#0b4870" d="M826.7 237s-12.6-15.3-25.3-23.2c-12.6-7.9-51.6-61.6-36.3-102.1 15.3-40.5 49.5-36.4 51.6-51.6 3.3-24.7 77.4-49.5 93.2-9.5 15.8 40 57.4 108.5-1.1 104.8-58.4-3.7-82.1 81.6-82.1 81.6z"/><path fill="#fcd2b1" d="M838.3 182.6s-7 25.8-11.1 48.9c-3 16.8 8.5 32.7 25.4 35.1 16.7 2.4 32.1-9.3 34.2-26l7.2-55c-.1.1-46.3-20.6-55.7-3z"/><path fill="#8e4926" d="m831.6 315.1 159.3-82.6c5.4-2.8 11.5-3.9 17.5-3.2 8 1 20.4 1.4 31.3-3 17.8-7.2 67.3-60.9 67.3-60.9s29.1-2.5 31.5 11c2.4 13.5-9.3 24.9-9.3 24.9l-54.3 23.8-170.7 147.4s-64.8-.8-72.6-57.4zM1199.2 177.7l141.3-52.4s3.5-28-8.4-30.4c-12-2.4-161.8 58.5-161.8 58.5s-3.7 32.3 28.9 24.3z"/><path fill="#b0c2ce" d="m1107 165.4 6.6 3.9c8 4.8 13.3 13 14.5 22.2l1.2 9.7 69.9-23.6-3.8-10.7c-1-2.8-3.9-4.4-6.8-3.8-4.6 1.1-9.2-2.1-9.8-6.9l378.9-136.9c5.3-1.8 8.1-7.6 6.2-12.9-1.9-5.2-7.7-7.9-12.9-6l-444 165z"/><path fill="#fcd2b1" d="M904 364.5s98.4-85.4 137.6-131.9c0 0 13.7-40.6 29.4-34.5 6.2 2.4-14.1 14-5.9 18.7 8.2 4.6 54.9-11.4 54.9-11.4-.6 12.6-40.9 54.5-50.9 51.1-17.2-5.8-126 179.9-171.5 177.6-21-1.1-100.5-56.7-100.5-56.7l40.8-64.1 66.1 51.2z"/><path fill="#ffbe55" d="M746.1 281.7c9.2-15.9 29.9-21 46.1-12.3 14 7.6 34.9 21.1 61.9 44.7 20.2 17.6 33.5 26.7 33.5 26.7l-44.9 75.8s-45.5-20-70.9-57.8c-14.9-22-40.5-51.5-25.7-77.1z"/><path fill="#ffe3ca" d="M915.1 79.7c8.1 12.7 12.8 27.7 20.5 53.6 19 64.2-32.6 119.2-95.8 82-17.9-10.5-21.7-39-21.7-39s-15.2-3.7-19.9-22.6 7.2-31.6 19.9-15.3c3.3 4.2 12.4 9.5 14.5 16.3 2.1 6.8 10.3 5.8 11.9 1.6 1-2.6 17.2-17 14.9-35.2-7.8-61.3 38.7-68.2 55.7-41.4z"/><path fill="#fcd2b1" d="M1046.8 372.5c13.3 8.3 41.9 21.8 70.5 15.4 37.4-8.4 109.9-200.3 109.9-200.3s22.1-4.2 30-18.4c5.7-10.2 5.6-25.4 5.2-33.1-.1-2.2-2.6-3.5-4.5-2.3-10.3 6.3-18 15.8-23.1 26.7-1.4 2.9-3.2 5.3-5.9 6.3-8.4 3.2-24.7 3.9-23.8 13.5 2.5 24.8-93.3 151.8-98.6 156-3.6 2.9-26.9-12.5-41-22.4l-18.7 58.6z"/><path fill="#fff" d="M746.1 281.7c9.2-15.9 29.9-21 46.1-12.3 14 7.6 34.9 21.1 61.9 44.7 20.2 17.6 33.5 26.7 33.5 26.7l-44.9 75.8s-45.5-20-70.9-57.8c-14.9-22-40.5-51.5-25.7-77.1z" opacity=".14"/></svg>